<?xml version="1.0" encoding="UTF-8" standalone="no"?>
<!DOCTYPE svg PUBLIC "-//W3C//DTD SVG 1.1//EN"
 "http://www.w3.org/Graphics/SVG/1.1/DTD/svg11.dtd">
<!-- Generated by graphviz version 12.2.1 (0)
 -->
<!-- Title: test ipo Pages: 1 -->
<svg width="491pt" height="577pt"
 viewBox="0.00 0.00 491.12 577.00" xmlns="http://www.w3.org/2000/svg" xmlns:xlink="http://www.w3.org/1999/xlink">
<g id="graph0" class="graph" transform="scale(1 1) rotate(0) translate(4 573)">
<title>test ipo</title>
<polygon fill="white" stroke="none" points="-4,4 -4,-573 487.12,-573 487.12,4 -4,4"/>
<!-- inputs -->
<g id="node1" class="node">
<title>inputs</title>
<polygon fill="none" stroke="black" points="0,-533.75 0,-569 259.25,-569 259.25,-533.75 0,-533.75"/>
<text text-anchor="start" x="106.75" y="-546.7" font-family="Times,serif" font-size="14.00">Inputs</text>
<polygon fill="none" stroke="black" points="0,-396.25 0,-533.75 259.25,-533.75 259.25,-396.25 0,-396.25"/>
<text text-anchor="start" x="7" y="-513.45" font-family="Times,serif" font-size="14.00">Life cycle concepts</text>
<text text-anchor="start" x="7" y="-492.2" font-family="Times,serif" font-size="14.00">Operational System</text>
<text text-anchor="start" x="7" y="-470.95" font-family="Times,serif" font-size="14.00">Maintained and Sustained System</text>
<text text-anchor="start" x="7" y="-449.7" font-family="Times,serif" font-size="14.00">Trained Personnel</text>
<text text-anchor="start" x="7" y="-428.45" font-family="Times,serif" font-size="14.00">Operation Report</text>
<text text-anchor="start" x="7" y="-407.2" font-family="Times,serif" font-size="14.00">Maintenance and Logistics Report</text>
</g>
<!-- activities -->
<g id="node2" class="node">
<title>activities</title>
<polygon fill="none" stroke="black" points="234,-325 234,-360.25 397.25,-360.25 397.25,-325 234,-325"/>
<text text-anchor="start" x="282.25" y="-337.95" font-family="Times,serif" font-size="14.00">Activities</text>
<polygon fill="none" stroke="black" points="234,-251.25 234,-325 397.25,-325 397.25,-251.25 234,-251.25"/>
<text text-anchor="start" x="241" y="-304.7" font-family="Times,serif" font-size="14.00">Prepare for Disposal</text>
<text text-anchor="start" x="241" y="-283.45" font-family="Times,serif" font-size="14.00">Perform Disposal</text>
<text text-anchor="start" x="241" y="-262.2" font-family="Times,serif" font-size="14.00">Finalize the Disposal</text>
</g>
<!-- inputs&#45;&gt;activities -->
<g id="edge1" class="edge">
<title>inputs&#45;&gt;activities</title>
<path fill="none" stroke="black" d="M220.17,-396.49C230.6,-386.69 241.06,-376.85 251.05,-367.47"/>
<polygon fill="black" stroke="black" points="258.05,-360.88 253.85,-371.01 255.3,-363.47 250.76,-367.73 250.76,-367.73 250.76,-367.73 255.3,-363.47 247.68,-364.45 258.05,-360.88"/>
</g>
<!-- outputs -->
<g id="node3" class="node">
<title>outputs</title>
<polygon fill="none" stroke="black" points="148.12,-180 148.12,-215.25 483.12,-215.25 483.12,-180 148.12,-180"/>
<text text-anchor="start" x="286.75" y="-192.95" font-family="Times,serif" font-size="14.00">Outputs</text>
<polygon fill="none" stroke="black" points="148.12,0 148.12,-180 483.12,-180 483.12,0 148.12,0"/>
<text text-anchor="start" x="155.12" y="-159.7" font-family="Times,serif" font-size="14.00">Disposal Strategy/Approach</text>
<text text-anchor="start" x="155.12" y="-138.45" font-family="Times,serif" font-size="14.00">Disposal Procedure</text>
<text text-anchor="start" x="155.12" y="-117.2" font-family="Times,serif" font-size="14.00">Disposed System</text>
<text text-anchor="start" x="155.12" y="-95.95" font-family="Times,serif" font-size="14.00">Constraints on Solution</text>
<text text-anchor="start" x="155.12" y="-74.7" font-family="Times,serif" font-size="14.00">Requirements Imposed on Enabling Systems</text>
<text text-anchor="start" x="155.12" y="-53.45" font-family="Times,serif" font-size="14.00">Traceability Mapping</text>
<text text-anchor="start" x="155.12" y="-32.2" font-family="Times,serif" font-size="14.00">Disposal Report</text>
<text text-anchor="start" x="155.12" y="-10.95" font-family="Times,serif" font-size="14.00">Disposal Records/Artifacts</text>
</g>
<!-- activities&#45;&gt;outputs -->
<g id="edge2" class="edge">
<title>activities&#45;&gt;outputs</title>
<path fill="none" stroke="black" d="M315.62,-251.42C315.62,-243.44 315.62,-234.96 315.62,-226.27"/>
<polygon fill="black" stroke="black" points="315.63,-216.39 320.13,-226.39 315.63,-220.17 315.63,-226.39 315.63,-226.39 315.63,-226.39 315.63,-220.17 311.13,-226.39 315.63,-216.39"/>
</g>
<!-- controls -->
<g id="node4" class="node">
<title>controls</title>
<polygon fill="none" stroke="black" points="354,-500.62 277.25,-500.62 277.25,-464.62 354,-464.62 354,-500.62"/>
<text text-anchor="middle" x="315.62" y="-477.95" font-family="Times,serif" font-size="14.00">Controls</text>
</g>
<!-- controls&#45;&gt;activities -->
<g id="edge3" class="edge">
<title>controls&#45;&gt;activities</title>
<path fill="none" stroke="black" d="M315.62,-464.22C315.62,-442.56 315.62,-404.37 315.62,-371.02"/>
<polygon fill="black" stroke="black" points="315.63,-361.15 320.13,-371.15 315.63,-364.93 315.63,-371.15 315.63,-371.15 315.63,-371.15 315.63,-364.93 311.13,-371.15 315.63,-361.15"/>
</g>
<!-- enablers -->
<g id="node5" class="node">
<title>enablers</title>
<polygon fill="none" stroke="black" points="451.5,-500.62 371.75,-500.62 371.75,-464.62 451.5,-464.62 451.5,-500.62"/>
<text text-anchor="middle" x="411.62" y="-477.95" font-family="Times,serif" font-size="14.00">Enablers</text>
</g>
<!-- enablers&#45;&gt;activities -->
<g id="edge4" class="edge">
<title>enablers&#45;&gt;activities</title>
<path fill="none" stroke="black" d="M402.07,-464.22C390.03,-442.28 368.67,-403.37 350.19,-369.72"/>
<polygon fill="black" stroke="black" points="345.4,-360.99 354.16,-367.6 347.22,-364.31 350.22,-369.76 350.22,-369.76 350.22,-369.76 347.22,-364.31 346.27,-371.93 345.4,-360.99"/>
</g>
</g>
</svg>
