<?xml version="1.0" encoding="UTF-8" standalone="no"?>
<!DOCTYPE svg PUBLIC "-//W3C//DTD SVG 1.1//EN"
 "http://www.w3.org/Graphics/SVG/1.1/DTD/svg11.dtd">
<!-- Generated by graphviz version 12.2.1 (0)
 -->
<!-- Title: test ipo Pages: 1 -->
<svg width="511pt" height="683pt"
 viewBox="0.00 0.00 510.88 683.25" xmlns="http://www.w3.org/2000/svg" xmlns:xlink="http://www.w3.org/1999/xlink">
<g id="graph0" class="graph" transform="scale(1 1) rotate(0) translate(4 679.25)">
<title>test ipo</title>
<polygon fill="white" stroke="none" points="-4,4 -4,-679.25 506.88,-679.25 506.88,4 -4,4"/>
<!-- inputs -->
<g id="node1" class="node">
<title>inputs</title>
<polygon fill="none" stroke="black" points="0,-640 0,-675.25 278.75,-675.25 278.75,-640 0,-640"/>
<text text-anchor="start" x="116.5" y="-652.95" font-family="Times,serif" font-size="14.00">Inputs</text>
<polygon fill="none" stroke="black" points="0,-417.5 0,-640 278.75,-640 278.75,-417.5 0,-417.5"/>
<text text-anchor="start" x="7" y="-619.7" font-family="Times,serif" font-size="14.00">Life cycle concepts</text>
<text text-anchor="start" x="7" y="-598.45" font-family="Times,serif" font-size="14.00">System Architecture Description</text>
<text text-anchor="start" x="7" y="-577.2" font-family="Times,serif" font-size="14.00">System Architecture Rationale</text>
<text text-anchor="start" x="7" y="-555.95" font-family="Times,serif" font-size="14.00">System Design Description</text>
<text text-anchor="start" x="7" y="-534.7" font-family="Times,serif" font-size="14.00">System Design Rationale</text>
<text text-anchor="start" x="7" y="-513.45" font-family="Times,serif" font-size="14.00">System Intertace Definition</text>
<text text-anchor="start" x="7" y="-492.2" font-family="Times,serif" font-size="14.00">System Element</text>
<text text-anchor="start" x="7" y="-470.95" font-family="Times,serif" font-size="14.00">System Element Description</text>
<text text-anchor="start" x="7" y="-449.7" font-family="Times,serif" font-size="14.00">Accepted System or System Element</text>
<text text-anchor="start" x="7" y="-428.45" font-family="Times,serif" font-size="14.00">Reused System or System Element</text>
</g>
<!-- activities -->
<g id="node2" class="node">
<title>activities</title>
<polygon fill="none" stroke="black" points="219.62,-346.25 219.62,-381.5 451.12,-381.5 451.12,-346.25 219.62,-346.25"/>
<text text-anchor="start" x="302" y="-359.2" font-family="Times,serif" font-size="14.00">Activities</text>
<polygon fill="none" stroke="black" points="219.62,-272.5 219.62,-346.25 451.12,-346.25 451.12,-272.5 219.62,-272.5"/>
<text text-anchor="start" x="226.62" y="-325.95" font-family="Times,serif" font-size="14.00">Prepare for Integration</text>
<text text-anchor="start" x="226.62" y="-304.7" font-family="Times,serif" font-size="14.00">Perform Integration</text>
<text text-anchor="start" x="226.62" y="-283.45" font-family="Times,serif" font-size="14.00">Manage Results of Integration</text>
</g>
<!-- inputs&#45;&gt;activities -->
<g id="edge1" class="edge">
<title>inputs&#45;&gt;activities</title>
<path fill="none" stroke="black" d="M254.52,-417.67C263.33,-407.91 271.94,-398.35 280.07,-389.34"/>
<polygon fill="black" stroke="black" points="286.57,-382.13 283.21,-392.57 284.04,-384.94 279.87,-389.56 279.87,-389.56 279.87,-389.56 284.04,-384.94 276.53,-386.54 286.57,-382.13"/>
</g>
<!-- outputs -->
<g id="node3" class="node">
<title>outputs</title>
<polygon fill="none" stroke="black" points="167.88,-201.25 167.88,-236.5 502.88,-236.5 502.88,-201.25 167.88,-201.25"/>
<text text-anchor="start" x="306.5" y="-214.2" font-family="Times,serif" font-size="14.00">Outputs</text>
<polygon fill="none" stroke="black" points="167.88,0 167.88,-201.25 502.88,-201.25 502.88,0 167.88,0"/>
<text text-anchor="start" x="174.88" y="-180.95" font-family="Times,serif" font-size="14.00">Integration Strategy/Approach</text>
<text text-anchor="start" x="174.88" y="-159.7" font-family="Times,serif" font-size="14.00">Integration Procedure</text>
<text text-anchor="start" x="174.88" y="-138.45" font-family="Times,serif" font-size="14.00">Integrated System or System Element</text>
<text text-anchor="start" x="174.88" y="-117.2" font-family="Times,serif" font-size="14.00">System Integration Descriptions</text>
<text text-anchor="start" x="174.88" y="-95.95" font-family="Times,serif" font-size="14.00">Constraints on Solution</text>
<text text-anchor="start" x="174.88" y="-74.7" font-family="Times,serif" font-size="14.00">Requirements Imposed on Enabling Systems</text>
<text text-anchor="start" x="174.88" y="-53.45" font-family="Times,serif" font-size="14.00">Traceability Mapping</text>
<text text-anchor="start" x="174.88" y="-32.2" font-family="Times,serif" font-size="14.00">Integration Report</text>
<text text-anchor="start" x="174.88" y="-10.95" font-family="Times,serif" font-size="14.00">Integration Records/Artifacts</text>
</g>
<!-- activities&#45;&gt;outputs -->
<g id="edge2" class="edge">
<title>activities&#45;&gt;outputs</title>
<path fill="none" stroke="black" d="M335.38,-272.76C335.38,-264.68 335.38,-256.06 335.38,-247.18"/>
<polygon fill="black" stroke="black" points="335.38,-237.46 339.88,-247.46 335.38,-241.24 335.38,-247.46 335.38,-247.46 335.38,-247.46 335.38,-241.24 330.88,-247.46 335.38,-237.46"/>
</g>
<!-- controls -->
<g id="node4" class="node">
<title>controls</title>
<polygon fill="none" stroke="black" points="373.75,-564.38 297,-564.38 297,-528.38 373.75,-528.38 373.75,-564.38"/>
<text text-anchor="middle" x="335.38" y="-541.7" font-family="Times,serif" font-size="14.00">Controls</text>
</g>
<!-- controls&#45;&gt;activities -->
<g id="edge3" class="edge">
<title>controls&#45;&gt;activities</title>
<path fill="none" stroke="black" d="M335.38,-527.95C335.38,-498.85 335.38,-438.95 335.38,-392.26"/>
<polygon fill="black" stroke="black" points="335.38,-382.52 339.88,-392.52 335.38,-386.31 335.38,-392.52 335.38,-392.52 335.38,-392.52 335.38,-386.31 330.88,-392.52 335.38,-382.52"/>
</g>
<!-- enablers -->
<g id="node5" class="node">
<title>enablers</title>
<polygon fill="none" stroke="black" points="471.25,-564.38 391.5,-564.38 391.5,-528.38 471.25,-528.38 471.25,-564.38"/>
<text text-anchor="middle" x="431.38" y="-541.7" font-family="Times,serif" font-size="14.00">Enablers</text>
</g>
<!-- enablers&#45;&gt;activities -->
<g id="edge4" class="edge">
<title>enablers&#45;&gt;activities</title>
<path fill="none" stroke="black" d="M425.5,-528.15C416.88,-503.34 399.91,-456.28 382.38,-417.5 378.49,-408.9 374.16,-399.97 369.75,-391.22"/>
<polygon fill="black" stroke="black" points="365.3,-382.53 373.86,-389.38 367.03,-385.9 369.86,-391.43 369.86,-391.43 369.86,-391.43 367.03,-385.9 365.85,-393.48 365.3,-382.53"/>
</g>
</g>
</svg>
