<?xml version="1.0" encoding="UTF-8" standalone="no"?>
<!DOCTYPE svg PUBLIC "-//W3C//DTD SVG 1.1//EN"
 "http://www.w3.org/Graphics/SVG/1.1/DTD/svg11.dtd">
<!-- Generated by graphviz version 12.2.1 (0)
 -->
<!-- Title: test ipo Pages: 1 -->
<svg width="525pt" height="662pt"
 viewBox="0.00 0.00 525.00 662.00" xmlns="http://www.w3.org/2000/svg" xmlns:xlink="http://www.w3.org/1999/xlink">
<g id="graph0" class="graph" transform="scale(1 1) rotate(0) translate(4 658)">
<title>test ipo</title>
<polygon fill="white" stroke="none" points="-4,4 -4,-658 521,-658 521,4 -4,4"/>
<!-- inputs -->
<g id="node1" class="node">
<title>inputs</title>
<polygon fill="none" stroke="black" points="0,-618.75 0,-654 293,-654 293,-618.75 0,-618.75"/>
<text text-anchor="start" x="123.62" y="-631.7" font-family="Times,serif" font-size="14.00">Inputs</text>
<polygon fill="none" stroke="black" points="0,-417.5 0,-618.75 293,-618.75 293,-417.5 0,-417.5"/>
<text text-anchor="start" x="7" y="-598.45" font-family="Times,serif" font-size="14.00">Life cycle concepts</text>
<text text-anchor="start" x="7" y="-577.2" font-family="Times,serif" font-size="14.00">System Viewpoints, Views, and Models</text>
<text text-anchor="start" x="7" y="-555.95" font-family="Times,serif" font-size="14.00">System Architecture Description</text>
<text text-anchor="start" x="7" y="-534.7" font-family="Times,serif" font-size="14.00">System Architecture Rationale</text>
<text text-anchor="start" x="7" y="-513.45" font-family="Times,serif" font-size="14.00">System Design Description</text>
<text text-anchor="start" x="7" y="-492.2" font-family="Times,serif" font-size="14.00">System Design Rationale</text>
<text text-anchor="start" x="7" y="-470.95" font-family="Times,serif" font-size="14.00">System Interface Definition</text>
<text text-anchor="start" x="7" y="-449.7" font-family="Times,serif" font-size="14.00">System Design Characteristics</text>
<text text-anchor="start" x="7" y="-428.45" font-family="Times,serif" font-size="14.00">System Element Description</text>
</g>
<!-- activities -->
<g id="node2" class="node">
<title>activities</title>
<polygon fill="none" stroke="black" points="217.25,-346.25 217.25,-381.5 481.75,-381.5 481.75,-346.25 217.25,-346.25"/>
<text text-anchor="start" x="316.12" y="-359.2" font-family="Times,serif" font-size="14.00">Activities</text>
<polygon fill="none" stroke="black" points="217.25,-272.5 217.25,-346.25 481.75,-346.25 481.75,-272.5 217.25,-272.5"/>
<text text-anchor="start" x="224.25" y="-325.95" font-family="Times,serif" font-size="14.00">Prepare for Implementation</text>
<text text-anchor="start" x="224.25" y="-304.7" font-family="Times,serif" font-size="14.00">Perform Implementation</text>
<text text-anchor="start" x="224.25" y="-283.45" font-family="Times,serif" font-size="14.00">Manage Results of Implementation</text>
</g>
<!-- inputs&#45;&gt;activities -->
<g id="edge1" class="edge">
<title>inputs&#45;&gt;activities</title>
<path fill="none" stroke="black" d="M261.35,-417.78C271.06,-407.89 280.61,-398.16 289.63,-388.98"/>
<polygon fill="black" stroke="black" points="296.55,-381.93 292.76,-392.21 293.9,-384.62 289.55,-389.06 289.55,-389.06 289.55,-389.06 293.9,-384.62 286.34,-385.91 296.55,-381.93"/>
</g>
<!-- outputs -->
<g id="node3" class="node">
<title>outputs</title>
<polygon fill="none" stroke="black" points="182,-201.25 182,-236.5 517,-236.5 517,-201.25 182,-201.25"/>
<text text-anchor="start" x="320.62" y="-214.2" font-family="Times,serif" font-size="14.00">Outputs</text>
<polygon fill="none" stroke="black" points="182,0 182,-201.25 517,-201.25 517,0 182,0"/>
<text text-anchor="start" x="189" y="-180.95" font-family="Times,serif" font-size="14.00">Implementation Strategy/Approach</text>
<text text-anchor="start" x="189" y="-159.7" font-family="Times,serif" font-size="14.00">System Elements</text>
<text text-anchor="start" x="189" y="-138.45" font-family="Times,serif" font-size="14.00">System Element Descriptions</text>
<text text-anchor="start" x="189" y="-117.2" font-family="Times,serif" font-size="14.00">Training Materials</text>
<text text-anchor="start" x="189" y="-95.95" font-family="Times,serif" font-size="14.00">Constraints on Solution</text>
<text text-anchor="start" x="189" y="-74.7" font-family="Times,serif" font-size="14.00">Requirements Imposed on Enabling Systems</text>
<text text-anchor="start" x="189" y="-53.45" font-family="Times,serif" font-size="14.00">Traceability Mapping</text>
<text text-anchor="start" x="189" y="-32.2" font-family="Times,serif" font-size="14.00">Implementation Report</text>
<text text-anchor="start" x="189" y="-10.95" font-family="Times,serif" font-size="14.00">Implementation Records/Artifacts</text>
</g>
<!-- activities&#45;&gt;outputs -->
<g id="edge2" class="edge">
<title>activities&#45;&gt;outputs</title>
<path fill="none" stroke="black" d="M349.5,-272.76C349.5,-264.68 349.5,-256.06 349.5,-247.18"/>
<polygon fill="black" stroke="black" points="349.5,-237.46 354,-247.46 349.5,-241.24 349.5,-247.46 349.5,-247.46 349.5,-247.46 349.5,-241.24 345,-247.46 349.5,-237.46"/>
</g>
<!-- controls -->
<g id="node4" class="node">
<title>controls</title>
<polygon fill="none" stroke="black" points="387.88,-553.75 311.12,-553.75 311.12,-517.75 387.88,-517.75 387.88,-553.75"/>
<text text-anchor="middle" x="349.5" y="-531.08" font-family="Times,serif" font-size="14.00">Controls</text>
</g>
<!-- controls&#45;&gt;activities -->
<g id="edge3" class="edge">
<title>controls&#45;&gt;activities</title>
<path fill="none" stroke="black" d="M349.5,-517.48C349.5,-490.25 349.5,-435.96 349.5,-392.45"/>
<polygon fill="black" stroke="black" points="349.5,-382.57 354,-392.57 349.5,-386.36 349.5,-392.57 349.5,-392.57 349.5,-392.57 349.5,-386.36 345,-392.57 349.5,-382.57"/>
</g>
<!-- enablers -->
<g id="node5" class="node">
<title>enablers</title>
<polygon fill="none" stroke="black" points="485.38,-553.75 405.62,-553.75 405.62,-517.75 485.38,-517.75 485.38,-553.75"/>
<text text-anchor="middle" x="445.5" y="-531.08" font-family="Times,serif" font-size="14.00">Enablers</text>
</g>
<!-- enablers&#45;&gt;activities -->
<g id="edge4" class="edge">
<title>enablers&#45;&gt;activities</title>
<path fill="none" stroke="black" d="M438.82,-517.46C429.8,-494.4 412.93,-452.44 396.5,-417.5 392.43,-408.85 387.96,-399.82 383.45,-390.98"/>
<polygon fill="black" stroke="black" points="378.92,-382.18 387.5,-389 380.65,-385.54 383.5,-391.07 383.5,-391.07 383.5,-391.07 380.65,-385.54 379.5,-393.13 378.92,-382.18"/>
</g>
</g>
</svg>
