<?xml version="1.0" encoding="UTF-8" standalone="no"?>
<!DOCTYPE svg PUBLIC "-//W3C//DTD SVG 1.1//EN"
 "http://www.w3.org/Graphics/SVG/1.1/DTD/svg11.dtd">
<!-- Generated by graphviz version 12.2.1 (0)
 -->
<!-- Title: test ipo Pages: 1 -->
<svg width="491pt" height="577pt"
 viewBox="0.00 0.00 490.75 577.00" xmlns="http://www.w3.org/2000/svg" xmlns:xlink="http://www.w3.org/1999/xlink">
<g id="graph0" class="graph" transform="scale(1 1) rotate(0) translate(4 573)">
<title>test ipo</title>
<polygon fill="white" stroke="none" points="-4,4 -4,-573 486.75,-573 486.75,4 -4,4"/>
<!-- inputs -->
<g id="node1" class="node">
<title>inputs</title>
<polygon fill="none" stroke="black" points="0,-533.75 0,-569 258.5,-569 258.5,-533.75 0,-533.75"/>
<text text-anchor="start" x="106.38" y="-546.7" font-family="Times,serif" font-size="14.00">Inputs</text>
<polygon fill="none" stroke="black" points="0,-417.5 0,-533.75 258.5,-533.75 258.5,-417.5 0,-417.5"/>
<text text-anchor="start" x="7" y="-513.45" font-family="Times,serif" font-size="14.00">Life cycle concepts</text>
<text text-anchor="start" x="7" y="-492.2" font-family="Times,serif" font-size="14.00">Installed System</text>
<text text-anchor="start" x="7" y="-470.95" font-family="Times,serif" font-size="14.00">Trained Personnel</text>
<text text-anchor="start" x="7" y="-449.7" font-family="Times,serif" font-size="14.00">Transition Report</text>
<text text-anchor="start" x="7" y="-428.45" font-family="Times,serif" font-size="14.00">Maintenance and Logistics Report</text>
</g>
<!-- activities -->
<g id="node2" class="node">
<title>activities</title>
<polygon fill="none" stroke="black" points="204,-346.25 204,-381.5 426.5,-381.5 426.5,-346.25 204,-346.25"/>
<text text-anchor="start" x="281.88" y="-359.2" font-family="Times,serif" font-size="14.00">Activities</text>
<polygon fill="none" stroke="black" points="204,-251.25 204,-346.25 426.5,-346.25 426.5,-251.25 204,-251.25"/>
<text text-anchor="start" x="211" y="-325.95" font-family="Times,serif" font-size="14.00">Prepare for Operation</text>
<text text-anchor="start" x="211" y="-304.7" font-family="Times,serif" font-size="14.00">Perform Operation</text>
<text text-anchor="start" x="211" y="-283.45" font-family="Times,serif" font-size="14.00">Manage Results of Operation</text>
<text text-anchor="start" x="211" y="-262.2" font-family="Times,serif" font-size="14.00">Support Stakeholders</text>
</g>
<!-- inputs&#45;&gt;activities -->
<g id="edge1" class="edge">
<title>inputs&#45;&gt;activities</title>
<path fill="none" stroke="black" d="M208.67,-417.58C218.8,-408.06 229.15,-398.33 239.22,-388.86"/>
<polygon fill="black" stroke="black" points="246.34,-382.16 242.14,-392.29 243.59,-384.75 239.06,-389.01 239.06,-389.01 239.06,-389.01 243.59,-384.75 235.97,-385.73 246.34,-382.16"/>
</g>
<!-- outputs -->
<g id="node3" class="node">
<title>outputs</title>
<polygon fill="none" stroke="black" points="147.75,-180 147.75,-215.25 482.75,-215.25 482.75,-180 147.75,-180"/>
<text text-anchor="start" x="286.38" y="-192.95" font-family="Times,serif" font-size="14.00">Outputs</text>
<polygon fill="none" stroke="black" points="147.75,0 147.75,-180 482.75,-180 482.75,0 147.75,0"/>
<text text-anchor="start" x="154.75" y="-159.7" font-family="Times,serif" font-size="14.00">Operation Strategy/Approach</text>
<text text-anchor="start" x="154.75" y="-138.45" font-family="Times,serif" font-size="14.00">Operation Procedure</text>
<text text-anchor="start" x="154.75" y="-117.2" font-family="Times,serif" font-size="14.00">Operational System</text>
<text text-anchor="start" x="154.75" y="-95.95" font-family="Times,serif" font-size="14.00">Constraints on Solution</text>
<text text-anchor="start" x="154.75" y="-74.7" font-family="Times,serif" font-size="14.00">Requirements Imposed on Enabling Systems</text>
<text text-anchor="start" x="154.75" y="-53.45" font-family="Times,serif" font-size="14.00">Traceability Mapping</text>
<text text-anchor="start" x="154.75" y="-32.2" font-family="Times,serif" font-size="14.00">Operation Report</text>
<text text-anchor="start" x="154.75" y="-10.95" font-family="Times,serif" font-size="14.00">Operation Records/Artifacts</text>
</g>
<!-- activities&#45;&gt;outputs -->
<g id="edge2" class="edge">
<title>activities&#45;&gt;outputs</title>
<path fill="none" stroke="black" d="M315.25,-251.37C315.25,-243.2 315.25,-234.64 315.25,-225.95"/>
<polygon fill="black" stroke="black" points="315.25,-216.11 319.75,-226.11 315.25,-219.89 315.25,-226.11 315.25,-226.11 315.25,-226.11 315.25,-219.89 310.75,-226.11 315.25,-216.11"/>
</g>
<!-- controls -->
<g id="node4" class="node">
<title>controls</title>
<polygon fill="none" stroke="black" points="353.62,-511.25 276.88,-511.25 276.88,-475.25 353.62,-475.25 353.62,-511.25"/>
<text text-anchor="middle" x="315.25" y="-488.57" font-family="Times,serif" font-size="14.00">Controls</text>
</g>
<!-- controls&#45;&gt;activities -->
<g id="edge3" class="edge">
<title>controls&#45;&gt;activities</title>
<path fill="none" stroke="black" d="M315.25,-474.84C315.25,-455.45 315.25,-422.8 315.25,-392.25"/>
<polygon fill="black" stroke="black" points="315.25,-382.33 319.75,-392.33 315.25,-386.11 315.25,-392.33 315.25,-392.33 315.25,-392.33 315.25,-386.11 310.75,-392.33 315.25,-382.33"/>
</g>
<!-- enablers -->
<g id="node5" class="node">
<title>enablers</title>
<polygon fill="none" stroke="black" points="451.12,-511.25 371.38,-511.25 371.38,-475.25 451.12,-475.25 451.12,-511.25"/>
<text text-anchor="middle" x="411.25" y="-488.57" font-family="Times,serif" font-size="14.00">Enablers</text>
</g>
<!-- enablers&#45;&gt;activities -->
<g id="edge4" class="edge">
<title>enablers&#45;&gt;activities</title>
<path fill="none" stroke="black" d="M401.69,-474.84C390.86,-455.11 372.5,-421.66 355.47,-390.64"/>
<polygon fill="black" stroke="black" points="350.83,-382.18 359.58,-388.78 352.65,-385.49 355.64,-390.95 355.64,-390.95 355.64,-390.95 352.65,-385.49 351.69,-393.11 350.83,-382.18"/>
</g>
</g>
</svg>
