<?xml version="1.0" encoding="UTF-8" standalone="no"?>
<!DOCTYPE svg PUBLIC "-//W3C//DTD SVG 1.1//EN"
 "http://www.w3.org/Graphics/SVG/1.1/DTD/svg11.dtd">
<!-- Generated by graphviz version 12.2.1 (0)
 -->
<!-- Title: test ipo Pages: 1 -->
<svg width="443pt" height="620pt"
 viewBox="0.00 0.00 442.75 619.50" xmlns="http://www.w3.org/2000/svg" xmlns:xlink="http://www.w3.org/1999/xlink">
<g id="graph0" class="graph" transform="scale(1 1) rotate(0) translate(4 615.5)">
<title>test ipo</title>
<polygon fill="white" stroke="none" points="-4,4 -4,-615.5 438.75,-615.5 438.75,4 -4,4"/>
<!-- inputs -->
<g id="node1" class="node">
<title>inputs</title>
<polygon fill="none" stroke="black" points="0,-576.25 0,-611.5 210.5,-611.5 210.5,-576.25 0,-576.25"/>
<text text-anchor="start" x="82.38" y="-589.2" font-family="Times,serif" font-size="14.00">Inputs</text>
<polygon fill="none" stroke="black" points="0,-417.5 0,-576.25 210.5,-576.25 210.5,-417.5 0,-417.5"/>
<text text-anchor="start" x="7" y="-555.95" font-family="Times,serif" font-size="14.00">Life cycle concepts</text>
<text text-anchor="start" x="7" y="-534.7" font-family="Times,serif" font-size="14.00">System Interface Definition</text>
<text text-anchor="start" x="7" y="-513.45" font-family="Times,serif" font-size="14.00">Verified System</text>
<text text-anchor="start" x="7" y="-492.2" font-family="Times,serif" font-size="14.00">Verification Report</text>
<text text-anchor="start" x="7" y="-470.95" font-family="Times,serif" font-size="14.00">Validated System</text>
<text text-anchor="start" x="7" y="-449.7" font-family="Times,serif" font-size="14.00">Validation Report</text>
<text text-anchor="start" x="7" y="-428.45" font-family="Times,serif" font-size="14.00">Training Materials</text>
</g>
<!-- activities -->
<g id="node2" class="node">
<title>activities</title>
<polygon fill="none" stroke="black" points="155.25,-346.25 155.25,-381.5 379.25,-381.5 379.25,-346.25 155.25,-346.25"/>
<text text-anchor="start" x="233.88" y="-359.2" font-family="Times,serif" font-size="14.00">Activities</text>
<polygon fill="none" stroke="black" points="155.25,-272.5 155.25,-346.25 379.25,-346.25 379.25,-272.5 155.25,-272.5"/>
<text text-anchor="start" x="162.25" y="-325.95" font-family="Times,serif" font-size="14.00">Prepare for Transition</text>
<text text-anchor="start" x="162.25" y="-304.7" font-family="Times,serif" font-size="14.00">Perform Transition</text>
<text text-anchor="start" x="162.25" y="-283.45" font-family="Times,serif" font-size="14.00">Manage Results of Transition</text>
</g>
<!-- inputs&#45;&gt;activities -->
<g id="edge1" class="edge">
<title>inputs&#45;&gt;activities</title>
<path fill="none" stroke="black" d="M188.86,-417.76C197.27,-408.13 205.64,-398.54 213.62,-389.41"/>
<polygon fill="black" stroke="black" points="220.01,-382.09 216.83,-392.58 217.53,-384.94 213.44,-389.62 213.44,-389.62 213.44,-389.62 217.53,-384.94 210.05,-386.66 220.01,-382.09"/>
</g>
<!-- outputs -->
<g id="node3" class="node">
<title>outputs</title>
<polygon fill="none" stroke="black" points="99.75,-201.25 99.75,-236.5 434.75,-236.5 434.75,-201.25 99.75,-201.25"/>
<text text-anchor="start" x="238.38" y="-214.2" font-family="Times,serif" font-size="14.00">Outputs</text>
<polygon fill="none" stroke="black" points="99.75,0 99.75,-201.25 434.75,-201.25 434.75,0 99.75,0"/>
<text text-anchor="start" x="106.75" y="-180.95" font-family="Times,serif" font-size="14.00">Transition Strategy/Approach</text>
<text text-anchor="start" x="106.75" y="-159.7" font-family="Times,serif" font-size="14.00">Installation Procedure</text>
<text text-anchor="start" x="106.75" y="-138.45" font-family="Times,serif" font-size="14.00">Installed System</text>
<text text-anchor="start" x="106.75" y="-117.2" font-family="Times,serif" font-size="14.00">Trained Personnel</text>
<text text-anchor="start" x="106.75" y="-95.95" font-family="Times,serif" font-size="14.00">Constraints on Solution</text>
<text text-anchor="start" x="106.75" y="-74.7" font-family="Times,serif" font-size="14.00">Requirements Imposed on Enabling Systems</text>
<text text-anchor="start" x="106.75" y="-53.45" font-family="Times,serif" font-size="14.00">Traceability Mapping</text>
<text text-anchor="start" x="106.75" y="-32.2" font-family="Times,serif" font-size="14.00">Transition Report</text>
<text text-anchor="start" x="106.75" y="-10.95" font-family="Times,serif" font-size="14.00">Transition Records/Artifacts</text>
</g>
<!-- activities&#45;&gt;outputs -->
<g id="edge2" class="edge">
<title>activities&#45;&gt;outputs</title>
<path fill="none" stroke="black" d="M267.25,-272.76C267.25,-264.68 267.25,-256.06 267.25,-247.18"/>
<polygon fill="black" stroke="black" points="267.25,-237.46 271.75,-247.46 267.25,-241.24 267.25,-247.46 267.25,-247.46 267.25,-247.46 267.25,-241.24 262.75,-247.46 267.25,-237.46"/>
</g>
<!-- controls -->
<g id="node4" class="node">
<title>controls</title>
<polygon fill="none" stroke="black" points="305.62,-532.5 228.88,-532.5 228.88,-496.5 305.62,-496.5 305.62,-532.5"/>
<text text-anchor="middle" x="267.25" y="-509.82" font-family="Times,serif" font-size="14.00">Controls</text>
</g>
<!-- controls&#45;&gt;activities -->
<g id="edge3" class="edge">
<title>controls&#45;&gt;activities</title>
<path fill="none" stroke="black" d="M267.25,-496.05C267.25,-472.51 267.25,-429.3 267.25,-392.59"/>
<polygon fill="black" stroke="black" points="267.25,-382.65 271.75,-392.65 267.25,-386.44 267.25,-392.65 267.25,-392.65 267.25,-392.65 267.25,-386.44 262.75,-392.65 267.25,-382.65"/>
</g>
<!-- enablers -->
<g id="node5" class="node">
<title>enablers</title>
<polygon fill="none" stroke="black" points="403.12,-532.5 323.38,-532.5 323.38,-496.5 403.12,-496.5 403.12,-532.5"/>
<text text-anchor="middle" x="363.25" y="-509.82" font-family="Times,serif" font-size="14.00">Enablers</text>
</g>
<!-- enablers&#45;&gt;activities -->
<g id="edge4" class="edge">
<title>enablers&#45;&gt;activities</title>
<path fill="none" stroke="black" d="M354.46,-496.13C344.7,-476.87 328.45,-444.92 314.25,-417.5 309.85,-409.01 305.2,-400.07 300.59,-391.27"/>
<polygon fill="black" stroke="black" points="296,-382.51 304.63,-389.28 297.76,-385.85 300.64,-391.36 300.64,-391.36 300.64,-391.36 297.76,-385.85 296.65,-393.45 296,-382.51"/>
</g>
</g>
</svg>
