<?xml version="1.0" encoding="UTF-8" standalone="no"?>
<!DOCTYPE svg PUBLIC "-//W3C//DTD SVG 1.1//EN"
 "http://www.w3.org/Graphics/SVG/1.1/DTD/svg11.dtd">
<!-- Generated by graphviz version 12.2.1 (0)
 -->
<!-- Title: test ipo Pages: 1 -->
<svg width="521pt" height="747pt"
 viewBox="0.00 0.00 521.12 747.00" xmlns="http://www.w3.org/2000/svg" xmlns:xlink="http://www.w3.org/1999/xlink">
<g id="graph0" class="graph" transform="scale(1 1) rotate(0) translate(4 743)">
<title>test ipo</title>
<polygon fill="white" stroke="none" points="-4,4 -4,-743 517.12,-743 517.12,4 -4,4"/>
<!-- inputs -->
<g id="node1" class="node">
<title>inputs</title>
<polygon fill="none" stroke="black" points="0,-703.75 0,-739 289.25,-739 289.25,-703.75 0,-703.75"/>
<text text-anchor="start" x="121.75" y="-716.7" font-family="Times,serif" font-size="14.00">Inputs</text>
<polygon fill="none" stroke="black" points="0,-481.25 0,-703.75 289.25,-703.75 289.25,-481.25 0,-481.25"/>
<text text-anchor="start" x="7" y="-683.45" font-family="Times,serif" font-size="14.00">Life cycle concepts</text>
<text text-anchor="start" x="7" y="-662.2" font-family="Times,serif" font-size="14.00">Verification Criteria</text>
<text text-anchor="start" x="7" y="-640.95" font-family="Times,serif" font-size="14.00">System Requirements</text>
<text text-anchor="start" x="7" y="-619.7" font-family="Times,serif" font-size="14.00">System Architecture Description</text>
<text text-anchor="start" x="7" y="-598.45" font-family="Times,serif" font-size="14.00">System Architecture Rationale</text>
<text text-anchor="start" x="7" y="-577.2" font-family="Times,serif" font-size="14.00">System Design Description</text>
<text text-anchor="start" x="7" y="-555.95" font-family="Times,serif" font-size="14.00">System Design Rationale</text>
<text text-anchor="start" x="7" y="-534.7" font-family="Times,serif" font-size="14.00">System Interface Definition</text>
<text text-anchor="start" x="7" y="-513.45" font-family="Times,serif" font-size="14.00">Integrated System or System Element</text>
<text text-anchor="start" x="7" y="-492.2" font-family="Times,serif" font-size="14.00">Integration Report</text>
</g>
<!-- activities -->
<g id="node2" class="node">
<title>activities</title>
<polygon fill="none" stroke="black" points="229.5,-410 229.5,-445.25 461.75,-445.25 461.75,-410 229.5,-410"/>
<text text-anchor="start" x="312.25" y="-422.95" font-family="Times,serif" font-size="14.00">Activities</text>
<polygon fill="none" stroke="black" points="229.5,-336.25 229.5,-410 461.75,-410 461.75,-336.25 229.5,-336.25"/>
<text text-anchor="start" x="236.5" y="-389.7" font-family="Times,serif" font-size="14.00">Prepare for Verification</text>
<text text-anchor="start" x="236.5" y="-368.45" font-family="Times,serif" font-size="14.00">Perform Verification</text>
<text text-anchor="start" x="236.5" y="-347.2" font-family="Times,serif" font-size="14.00">Manage Results of Verification</text>
</g>
<!-- inputs&#45;&gt;activities -->
<g id="edge1" class="edge">
<title>inputs&#45;&gt;activities</title>
<path fill="none" stroke="black" d="M262.71,-481.42C271.74,-471.66 280.57,-462.1 288.91,-453.09"/>
<polygon fill="black" stroke="black" points="295.58,-445.87 292.1,-456.27 293.02,-448.64 288.79,-453.21 288.79,-453.21 288.79,-453.21 293.02,-448.64 285.49,-450.16 295.58,-445.87"/>
</g>
<!-- outputs -->
<g id="node3" class="node">
<title>outputs</title>
<polygon fill="none" stroke="black" points="178.12,-265 178.12,-300.25 513.12,-300.25 513.12,-265 178.12,-265"/>
<text text-anchor="start" x="316.75" y="-277.95" font-family="Times,serif" font-size="14.00">Outputs</text>
<polygon fill="none" stroke="black" points="178.12,0 178.12,-265 513.12,-265 513.12,0 178.12,0"/>
<text text-anchor="start" x="185.12" y="-244.7" font-family="Times,serif" font-size="14.00">Verification Strategy/Approach</text>
<text text-anchor="start" x="185.12" y="-223.45" font-family="Times,serif" font-size="14.00">Verification Criteria</text>
<text text-anchor="start" x="185.12" y="-202.2" font-family="Times,serif" font-size="14.00">Verification Procedure</text>
<text text-anchor="start" x="185.12" y="-180.95" font-family="Times,serif" font-size="14.00">Verified System Requirements</text>
<text text-anchor="start" x="185.12" y="-159.7" font-family="Times,serif" font-size="14.00">Verified System Architecture and Design</text>
<text text-anchor="start" x="185.12" y="-138.45" font-family="Times,serif" font-size="14.00">Verified System</text>
<text text-anchor="start" x="185.12" y="-117.2" font-family="Times,serif" font-size="14.00">Other Verified Artifacts</text>
<text text-anchor="start" x="185.12" y="-95.95" font-family="Times,serif" font-size="14.00">Constraints on Solution</text>
<text text-anchor="start" x="185.12" y="-74.7" font-family="Times,serif" font-size="14.00">Requirements Imposed on Enabling Systems</text>
<text text-anchor="start" x="185.12" y="-53.45" font-family="Times,serif" font-size="14.00">Traceability Mapping</text>
<text text-anchor="start" x="185.12" y="-32.2" font-family="Times,serif" font-size="14.00">Verification Report</text>
<text text-anchor="start" x="185.12" y="-10.95" font-family="Times,serif" font-size="14.00">Verification Records/Artifacts</text>
</g>
<!-- activities&#45;&gt;outputs -->
<g id="edge2" class="edge">
<title>activities&#45;&gt;outputs</title>
<path fill="none" stroke="black" d="M345.62,-336.49C345.62,-328.49 345.62,-319.9 345.62,-310.97"/>
<polygon fill="black" stroke="black" points="345.63,-301.14 350.13,-311.14 345.63,-304.92 345.63,-311.14 345.63,-311.14 345.63,-311.14 345.63,-304.92 341.13,-311.14 345.63,-301.14"/>
</g>
<!-- controls -->
<g id="node4" class="node">
<title>controls</title>
<polygon fill="none" stroke="black" points="384,-628.12 307.25,-628.12 307.25,-592.12 384,-592.12 384,-628.12"/>
<text text-anchor="middle" x="345.62" y="-605.45" font-family="Times,serif" font-size="14.00">Controls</text>
</g>
<!-- controls&#45;&gt;activities -->
<g id="edge3" class="edge">
<title>controls&#45;&gt;activities</title>
<path fill="none" stroke="black" d="M345.62,-591.7C345.62,-562.6 345.62,-502.7 345.62,-456.01"/>
<polygon fill="black" stroke="black" points="345.63,-446.27 350.13,-456.27 345.63,-450.06 345.63,-456.27 345.63,-456.27 345.63,-456.27 345.63,-450.06 341.13,-456.27 345.63,-446.27"/>
</g>
<!-- enablers -->
<g id="node5" class="node">
<title>enablers</title>
<polygon fill="none" stroke="black" points="481.5,-628.12 401.75,-628.12 401.75,-592.12 481.5,-592.12 481.5,-628.12"/>
<text text-anchor="middle" x="441.62" y="-605.45" font-family="Times,serif" font-size="14.00">Enablers</text>
</g>
<!-- enablers&#45;&gt;activities -->
<g id="edge4" class="edge">
<title>enablers&#45;&gt;activities</title>
<path fill="none" stroke="black" d="M435.75,-591.9C427.13,-567.09 410.16,-520.03 392.62,-481.25 388.74,-472.65 384.41,-463.72 380,-454.97"/>
<polygon fill="black" stroke="black" points="375.55,-446.28 384.11,-453.13 377.28,-449.65 380.11,-455.18 380.11,-455.18 380.11,-455.18 377.28,-449.65 376.1,-457.23 375.55,-446.28"/>
</g>
</g>
</svg>
