<?xml version="1.0" encoding="UTF-8" standalone="no"?>
<!DOCTYPE svg PUBLIC "-//W3C//DTD SVG 1.1//EN"
 "http://www.w3.org/Graphics/SVG/1.1/DTD/svg11.dtd">
<!-- Generated by graphviz version 12.2.1 (0)
 -->
<!-- Title: test ipo Pages: 1 -->
<svg width="426pt" height="492pt"
 viewBox="0.00 0.00 425.50 492.00" xmlns="http://www.w3.org/2000/svg" xmlns:xlink="http://www.w3.org/1999/xlink">
<g id="graph0" class="graph" transform="scale(1 1) rotate(0) translate(4 488)">
<title>test ipo</title>
<polygon fill="white" stroke="none" points="-4,4 -4,-488 421.5,-488 421.5,4 -4,4"/>
<!-- inputs -->
<g id="node1" class="node">
<title>inputs</title>
<polygon fill="none" stroke="black" points="0,-448.75 0,-484 194,-484 194,-448.75 0,-448.75"/>
<text text-anchor="start" x="74.12" y="-461.7" font-family="Times,serif" font-size="14.00">Inputs</text>
<polygon fill="none" stroke="black" points="0,-353.75 0,-448.75 194,-448.75 194,-353.75 0,-353.75"/>
<text text-anchor="start" x="7" y="-428.45" font-family="Times,serif" font-size="14.00">Life cycle concepts</text>
<text text-anchor="start" x="7" y="-407.2" font-family="Times,serif" font-size="14.00">Constraints on Solution</text>
<text text-anchor="start" x="7" y="-385.95" font-family="Times,serif" font-size="14.00">System Analysis Request</text>
<text text-anchor="start" x="7" y="-364.7" font-family="Times,serif" font-size="14.00">Analysis Situations</text>
</g>
<!-- activities -->
<g id="node2" class="node">
<title>activities</title>
<polygon fill="none" stroke="black" points="141.38,-282.5 141.38,-317.75 358.62,-317.75 358.62,-282.5 141.38,-282.5"/>
<text text-anchor="start" x="216.62" y="-295.45" font-family="Times,serif" font-size="14.00">Activities</text>
<polygon fill="none" stroke="black" points="141.38,-208.75 141.38,-282.5 358.62,-282.5 358.62,-208.75 141.38,-208.75"/>
<text text-anchor="start" x="148.38" y="-262.2" font-family="Times,serif" font-size="14.00">Prepare for System Analysis</text>
<text text-anchor="start" x="148.38" y="-240.95" font-family="Times,serif" font-size="14.00">Perform System Analysis</text>
<text text-anchor="start" x="148.38" y="-219.7" font-family="Times,serif" font-size="14.00">Manage System Analysis</text>
</g>
<!-- inputs&#45;&gt;activities -->
<g id="edge1" class="edge">
<title>inputs&#45;&gt;activities</title>
<path fill="none" stroke="black" d="M160.56,-354.06C170.05,-344.53 179.82,-334.72 189.25,-325.25"/>
<polygon fill="black" stroke="black" points="196.22,-318.25 192.35,-328.51 193.55,-320.93 189.17,-325.33 189.17,-325.33 189.17,-325.33 193.55,-320.93 185.98,-322.16 196.22,-318.25"/>
</g>
<!-- outputs -->
<g id="node3" class="node">
<title>outputs</title>
<polygon fill="none" stroke="black" points="82.5,-137.5 82.5,-172.75 417.5,-172.75 417.5,-137.5 82.5,-137.5"/>
<text text-anchor="start" x="221.12" y="-150.45" font-family="Times,serif" font-size="14.00">Outputs</text>
<polygon fill="none" stroke="black" points="82.5,0 82.5,-137.5 417.5,-137.5 417.5,0 82.5,0"/>
<text text-anchor="start" x="89.5" y="-117.2" font-family="Times,serif" font-size="14.00">System Analysis Strategy/Approach</text>
<text text-anchor="start" x="89.5" y="-95.95" font-family="Times,serif" font-size="14.00">Constraints on Solution</text>
<text text-anchor="start" x="89.5" y="-74.7" font-family="Times,serif" font-size="14.00">Requirements Imposed on Enabling Systems</text>
<text text-anchor="start" x="89.5" y="-53.45" font-family="Times,serif" font-size="14.00">Traceability Mapping</text>
<text text-anchor="start" x="89.5" y="-32.2" font-family="Times,serif" font-size="14.00">System Analysis Report</text>
<text text-anchor="start" x="89.5" y="-10.95" font-family="Times,serif" font-size="14.00">System Analysis Records/Artifacts</text>
</g>
<!-- activities&#45;&gt;outputs -->
<g id="edge2" class="edge">
<title>activities&#45;&gt;outputs</title>
<path fill="none" stroke="black" d="M250,-208.83C250,-200.78 250,-192.27 250,-183.65"/>
<polygon fill="black" stroke="black" points="250,-173.91 254.5,-183.91 250,-177.69 250,-183.91 250,-183.91 250,-183.91 250,-177.69 245.5,-183.91 250,-173.91"/>
</g>
<!-- controls -->
<g id="node4" class="node">
<title>controls</title>
<polygon fill="none" stroke="black" points="288.38,-436.88 211.62,-436.88 211.62,-400.88 288.38,-400.88 288.38,-436.88"/>
<text text-anchor="middle" x="250" y="-414.2" font-family="Times,serif" font-size="14.00">Controls</text>
</g>
<!-- controls&#45;&gt;activities -->
<g id="edge3" class="edge">
<title>controls&#45;&gt;activities</title>
<path fill="none" stroke="black" d="M250,-400.55C250,-383.04 250,-354.91 250,-328.74"/>
<polygon fill="black" stroke="black" points="250,-318.89 254.5,-328.89 250,-322.67 250,-328.89 250,-328.89 250,-328.89 250,-322.67 245.5,-328.89 250,-318.89"/>
</g>
<!-- enablers -->
<g id="node5" class="node">
<title>enablers</title>
<polygon fill="none" stroke="black" points="385.88,-436.88 306.12,-436.88 306.12,-400.88 385.88,-400.88 385.88,-436.88"/>
<text text-anchor="middle" x="346" y="-414.2" font-family="Times,serif" font-size="14.00">Enablers</text>
</g>
<!-- enablers&#45;&gt;activities -->
<g id="edge4" class="edge">
<title>enablers&#45;&gt;activities</title>
<path fill="none" stroke="black" d="M335.17,-400.55C323.99,-382.65 305.86,-353.65 289.2,-326.99"/>
<polygon fill="black" stroke="black" points="284.03,-318.71 293.15,-324.8 286.03,-321.92 289.33,-327.19 289.33,-327.19 289.33,-327.19 286.03,-321.92 285.51,-329.57 284.03,-318.71"/>
</g>
</g>
</svg>
