<?xml version="1.0" encoding="UTF-8" standalone="no"?>
<!DOCTYPE svg PUBLIC "-//W3C//DTD SVG 1.1//EN"
 "http://www.w3.org/Graphics/SVG/1.1/DTD/svg11.dtd">
<!-- Generated by graphviz version 12.2.1 (0)
 -->
<!-- Title: test ipo Pages: 1 -->
<svg width="392pt" height="556pt"
 viewBox="0.00 0.00 391.88 555.75" xmlns="http://www.w3.org/2000/svg" xmlns:xlink="http://www.w3.org/1999/xlink">
<g id="graph0" class="graph" transform="scale(1 1) rotate(0) translate(4 551.75)">
<title>test ipo</title>
<polygon fill="white" stroke="none" points="-4,4 -4,-551.75 387.88,-551.75 387.88,4 -4,4"/>
<!-- inputs -->
<g id="node1" class="node">
<title>inputs</title>
<polygon fill="none" stroke="black" points="0,-512.5 0,-547.75 155.75,-547.75 155.75,-512.5 0,-512.5"/>
<text text-anchor="start" x="55" y="-525.45" font-family="Times,serif" font-size="14.00">Inputs</text>
<polygon fill="none" stroke="black" points="0,-417.5 0,-512.5 155.75,-512.5 155.75,-417.5 0,-417.5"/>
<text text-anchor="start" x="7" y="-492.2" font-family="Times,serif" font-size="14.00">Life cycle concepts</text>
<text text-anchor="start" x="7" y="-470.95" font-family="Times,serif" font-size="14.00">Operational System</text>
<text text-anchor="start" x="7" y="-449.7" font-family="Times,serif" font-size="14.00">Trained Personnel</text>
<text text-anchor="start" x="7" y="-428.45" font-family="Times,serif" font-size="14.00">Operational Report</text>
</g>
<!-- activities -->
<g id="node2" class="node">
<title>activities</title>
<polygon fill="none" stroke="black" points="40.62,-346.25 40.62,-381.5 383.12,-381.5 383.12,-346.25 40.62,-346.25"/>
<text text-anchor="start" x="178.5" y="-359.2" font-family="Times,serif" font-size="14.00">Activities</text>
<polygon fill="none" stroke="black" points="40.62,-251.25 40.62,-346.25 383.12,-346.25 383.12,-251.25 40.62,-251.25"/>
<text text-anchor="start" x="47.62" y="-325.95" font-family="Times,serif" font-size="14.00">Prepare for Maintenance and Logistics</text>
<text text-anchor="start" x="47.62" y="-304.7" font-family="Times,serif" font-size="14.00">Perform Maintenance</text>
<text text-anchor="start" x="47.62" y="-283.45" font-family="Times,serif" font-size="14.00">Perform Logistics Support</text>
<text text-anchor="start" x="47.62" y="-262.2" font-family="Times,serif" font-size="14.00">Manage Results of Maintenance and Logistics</text>
</g>
<!-- inputs&#45;&gt;activities -->
<g id="edge1" class="edge">
<title>inputs&#45;&gt;activities</title>
<path fill="none" stroke="black" d="M130.07,-417.65C137.49,-408.55 145.18,-399.13 152.72,-389.88"/>
<polygon fill="black" stroke="black" points="158.84,-382.39 156,-392.98 156.44,-385.32 152.51,-390.14 152.51,-390.14 152.51,-390.14 156.44,-385.32 149.03,-387.29 158.84,-382.39"/>
</g>
<!-- outputs -->
<g id="node3" class="node">
<title>outputs</title>
<polygon fill="none" stroke="black" points="39.88,-180 39.88,-215.25 383.88,-215.25 383.88,-180 39.88,-180"/>
<text text-anchor="start" x="183" y="-192.95" font-family="Times,serif" font-size="14.00">Outputs</text>
<polygon fill="none" stroke="black" points="39.88,0 39.88,-180 383.88,-180 383.88,0 39.88,0"/>
<text text-anchor="start" x="46.88" y="-159.7" font-family="Times,serif" font-size="14.00">Maintenance and Logistics Strategy/Approach</text>
<text text-anchor="start" x="46.88" y="-138.45" font-family="Times,serif" font-size="14.00">Maintenance and Logistics Procedure</text>
<text text-anchor="start" x="46.88" y="-117.2" font-family="Times,serif" font-size="14.00">Maintained and Sustained System</text>
<text text-anchor="start" x="46.88" y="-95.95" font-family="Times,serif" font-size="14.00">Constraints on Solution</text>
<text text-anchor="start" x="46.88" y="-74.7" font-family="Times,serif" font-size="14.00">Requirements Imposed on Enabling Systems</text>
<text text-anchor="start" x="46.88" y="-53.45" font-family="Times,serif" font-size="14.00">Traceability Mapping</text>
<text text-anchor="start" x="46.88" y="-32.2" font-family="Times,serif" font-size="14.00">Maintenance and Logistics Report</text>
<text text-anchor="start" x="46.88" y="-10.95" font-family="Times,serif" font-size="14.00">Maintenance and Logistics Records/Artifacts</text>
</g>
<!-- activities&#45;&gt;outputs -->
<g id="edge2" class="edge">
<title>activities&#45;&gt;outputs</title>
<path fill="none" stroke="black" d="M211.88,-251.37C211.88,-243.2 211.88,-234.64 211.88,-225.95"/>
<polygon fill="black" stroke="black" points="211.88,-216.11 216.38,-226.11 211.88,-219.89 211.88,-226.11 211.88,-226.11 211.88,-226.11 211.88,-219.89 207.38,-226.11 211.88,-216.11"/>
</g>
<!-- controls -->
<g id="node4" class="node">
<title>controls</title>
<polygon fill="none" stroke="black" points="250.25,-500.62 173.5,-500.62 173.5,-464.62 250.25,-464.62 250.25,-500.62"/>
<text text-anchor="middle" x="211.88" y="-477.95" font-family="Times,serif" font-size="14.00">Controls</text>
</g>
<!-- controls&#45;&gt;activities -->
<g id="edge3" class="edge">
<title>controls&#45;&gt;activities</title>
<path fill="none" stroke="black" d="M211.88,-464.36C211.88,-447.06 211.88,-419.21 211.88,-392.39"/>
<polygon fill="black" stroke="black" points="211.88,-382.6 216.38,-392.6 211.88,-386.39 211.88,-392.6 211.88,-392.6 211.88,-392.6 211.88,-386.39 207.38,-392.6 211.88,-382.6"/>
</g>
<!-- enablers -->
<g id="node5" class="node">
<title>enablers</title>
<polygon fill="none" stroke="black" points="347.75,-500.62 268,-500.62 268,-464.62 347.75,-464.62 347.75,-500.62"/>
<text text-anchor="middle" x="307.88" y="-477.95" font-family="Times,serif" font-size="14.00">Enablers</text>
</g>
<!-- enablers&#45;&gt;activities -->
<g id="edge4" class="edge">
<title>enablers&#45;&gt;activities</title>
<path fill="none" stroke="black" d="M297.78,-464.36C287.49,-446.75 270.82,-418.22 254.88,-390.96"/>
<polygon fill="black" stroke="black" points="249.9,-382.44 258.83,-388.8 251.81,-385.7 254.95,-391.07 254.95,-391.07 254.95,-391.07 251.81,-385.7 251.06,-393.34 249.9,-382.44"/>
</g>
</g>
</svg>
